<svg class="last-visual" width="236.657" height="236.657" viewBox="0 0 236.657 236.657">
  <g id="blob-scene-haikei_2_" data-name="blob-scene-haikei (2)" transform="translate(-1358.941 1352.732)">
    <g id="last-visual" transform="translate(50 33)">
      <path id="Path_8" data-name="Path 8" d="M0,0C27.419,11.181,54.935,22.363,84.881,31.891c29.849,9.431,62.324,17.307,82.451,37.433s28,52.6,37.433,82.451c9.528,29.947,20.71,57.463,31.891,84.881H0Z" transform="translate(1545.598 -1385.732) rotate(90)" fill="#7b76c9"/>
      <path id="Path_9" data-name="Path 9" d="M0,0C18.279,7.389,36.558,14.876,56.588,21.2c19.932,6.32,41.517,11.57,54.935,24.988s18.668,35,24.988,54.935c6.32,20.029,13.807,38.308,21.2,56.588H0Z" transform="translate(1466.648 -1385.732) rotate(90)" fill="#f8c024"/>
      <path id="Path_10" data-name="Path 10" d="M0,0C9.14,3.695,18.279,7.389,28.294,10.6,38.211,13.709,49.1,16.335,55.81,23.043s9.334,17.6,12.445,27.516c3.209,10.015,6.9,19.154,10.6,28.294H0Z" transform="translate(1387.795 -1385.732) rotate(90)" fill="#ed98f0"/>
    </g>
  </g>
</svg>
